STARTFONT 2.1
FONT -sun-helmet-bold-r-normal--14-140-75-75-p-88-adobe-fontspecific
SIZE 14 75 75
FONTBOUNDINGBOX 18 17 -3 -3

STARTPROPERTIES 28
FOUNDRY "sun"
FAMILY_NAME "helmet"
WEIGHT_NAME "bold"
SLANT "r"
SETWIDTH_NAME "normal"
ADD_STYLE_NAME ""
PIXEL_SIZE 15
POINT_SIZE 140
RESOLUTION_X 75
RESOLUTION_Y 75
SPACING "p"
AVERAGE_WIDTH 88
CHARSET_REGISTRY "adobe"
CHARSET_ENCODING "fontspecific"
COPYRIGHT "© 1999 Sun Microsystems, Inc."
RAW_PIXELSIZE 1000
RAW_POINTSIZE 964
RAW_ASCENT 945
RAW_DESCENT 196
RAW_AVERAGE_WIDTH 6034
FACE_NAME "HelmetBoldItalic5"
_XMBDFED_INFO "Edited with xmbdfed 2.4."
WEIGHT 10
X_HEIGHT -1
QUAD_WIDTH 8
DEFAULT_CHAR 4
FONT_DESCENT 3
FONT_ASCENT 14
ENDPROPERTIES

CHARS 202

STARTCHAR char32
ENCODING 32
SWIDTH 30 0
DWIDTH 5 0
BBX 0 0 0 0
BITMAP
ENDCHAR

STARTCHAR char33
ENCODING 33
SWIDTH 30 0
DWIDTH 5 0
BBX 3 10 1 0
BITMAP
E0
E0
E0
E0
E0
40
00
00
E0
E0
ENDCHAR

STARTCHAR char34
ENCODING 34
SWIDTH 43 0
DWIDTH 7 0
BBX 7 5 0 5
BITMAP
EE
EE
66
EC
C8
ENDCHAR

STARTCHAR char35
ENCODING 35
SWIDTH 49 0
DWIDTH 8 0
BBX 7 11 0 0
BITMAP
12
14
24
7E
24
24
24
FE
28
48
48
ENDCHAR

STARTCHAR char36
ENCODING 36
SWIDTH 61 0
DWIDTH 10 0
BBX 9 12 0 -1
BITMAP
0C00
3E00
7F00
7F80
7E00
3F00
1F80
FF80
FF80
7F00
3E00
0C00
ENDCHAR

STARTCHAR char37
ENCODING 37
SWIDTH 29 0
DWIDTH 15 0
BBX 15 10 -1 0
BITMAP
7CE0
FEC0
EFC0
EFF8
EFFE
7FEE
3BEE
07EE
06FE
0678
ENDCHAR

STARTCHAR char38
ENCODING 38
SWIDTH 5 0
DWIDTH 11 0
BBX 11 10 0 0
BITMAP
3E00
7F00
7700
7F00
7E00
FDC0
EF80
E700
7F80
3DC0
ENDCHAR

STARTCHAR char39
ENCODING 39
SWIDTH 24 0
DWIDTH 4 0
BBX 3 5 1 5
BITMAP
60
C0
C0
E0
E0
ENDCHAR

STARTCHAR char40
ENCODING 40
SWIDTH 36 0
DWIDTH 6 0
BBX 4 13 1 -3
BITMAP
70
70
60
E0
E0
E0
E0
E0
E0
E0
60
70
70
ENDCHAR

STARTCHAR char41
ENCODING 41
SWIDTH 36 0
DWIDTH 6 0
BBX 4 13 0 -3
BITMAP
E0
60
60
70
70
70
70
70
70
60
60
60
C0
ENDCHAR

STARTCHAR char42
ENCODING 42
SWIDTH 43 0
DWIDTH 7 0
BBX 6 6 0 4
BITMAP
30
FC
FC
78
68
28
ENDCHAR

STARTCHAR char43
ENCODING 43
SWIDTH 61 0
DWIDTH 10 0
BBX 9 9 0 0
BITMAP
1C00
1C00
1C00
1C00
FF80
FF80
1C00
1C00
1C00
ENDCHAR

STARTCHAR char44
ENCODING 44
SWIDTH 30 0
DWIDTH 5 0
BBX 3 6 1 -3
BITMAP
60
E0
E0
60
C0
80
ENDCHAR

STARTCHAR char45
ENCODING 45
SWIDTH 36 0
DWIDTH 6 0
BBX 5 2 0 3
BITMAP
F8
F8
ENDCHAR

STARTCHAR char46
ENCODING 46
SWIDTH 30 0
DWIDTH 5 0
BBX 3 2 1 0
BITMAP
E0
E0
ENDCHAR

STARTCHAR char47
ENCODING 47
SWIDTH 43 0
DWIDTH 7 0
BBX 6 10 0 0
BITMAP
1C
1C
18
38
38
30
70
70
60
E0
ENDCHAR

STARTCHAR char48
ENCODING 48
SWIDTH 61 0
DWIDTH 10 0
BBX 9 10 0 0
BITMAP
3E00
7F00
7300
E380
E380
E380
E380
7300
7F00
1E00
ENDCHAR

STARTCHAR char49
ENCODING 49
SWIDTH 61 0
DWIDTH 10 0
BBX 5 10 2 0
BITMAP
38
38
F8
F8
38
38
38
38
38
38
ENDCHAR

STARTCHAR char50
ENCODING 50
SWIDTH 61 0
DWIDTH 10 0
BBX 9 10 0 0
BITMAP
1E00
7F00
7780
6380
0780
0F00
3E00
7800
7F80
FF80
ENDCHAR

STARTCHAR char51
ENCODING 51
SWIDTH 61 0
DWIDTH 10 0
BBX 9 10 0 0
BITMAP
3E00
7F00
F780
0300
0F00
0F00
E380
F780
7F00
3E00
ENDCHAR

STARTCHAR char52
ENCODING 52
SWIDTH 61 0
DWIDTH 10 0
BBX 9 10 0 0
BITMAP
0700
0F00
1F00
3F00
7700
E780
FF80
FF80
0700
0700
ENDCHAR

STARTCHAR char53
ENCODING 53
SWIDTH 61 0
DWIDTH 10 0
BBX 8 10 1 0
BITMAP
7E
7E
E0
FC
FE
E7
07
EF
FE
7C
ENDCHAR

STARTCHAR char54
ENCODING 54
SWIDTH 61 0
DWIDTH 10 0
BBX 9 10 0 0
BITMAP
3E00
7F00
7380
FE00
FF00
F380
E380
F380
7F00
3E00
ENDCHAR

STARTCHAR char55
ENCODING 55
SWIDTH 61 0
DWIDTH 10 0
BBX 8 10 1 0
BITMAP
FF
FF
06
0C
0C
1C
18
38
38
38
ENDCHAR

STARTCHAR char56
ENCODING 56
SWIDTH 61 0
DWIDTH 10 0
BBX 9 10 0 0
BITMAP
3E00
7F00
6380
7300
7F00
7F00
E380
F380
7F00
3E00
ENDCHAR

STARTCHAR char57
ENCODING 57
SWIDTH 61 0
DWIDTH 10 0
BBX 9 10 0 0
BITMAP
3E00
7F00
F380
E380
F780
7F80
3F80
E300
7F00
3E00
ENDCHAR

STARTCHAR char58
ENCODING 58
SWIDTH 30 0
DWIDTH 5 0
BBX 3 7 1 0
BITMAP
E0
E0
00
00
00
E0
E0
ENDCHAR

STARTCHAR char59
ENCODING 59
SWIDTH 30 0
DWIDTH 5 0
BBX 3 10 1 -3
BITMAP
E0
E0
00
00
00
E0
E0
60
C0
80
ENDCHAR

STARTCHAR char60
ENCODING 60
SWIDTH 55 0
DWIDTH 9 0
BBX 8 7 0 0
BITMAP
03
1C
60
C0
30
0C
03
ENDCHAR

STARTCHAR char61
ENCODING 61
SWIDTH 61 0
DWIDTH 10 0
BBX 10 5 0 2
BITMAP
FFC0
FFC0
0000
FFC0
FFC0
ENDCHAR

STARTCHAR char62
ENCODING 62
SWIDTH 55 0
DWIDTH 9 0
BBX 7 7 1 0
BITMAP
C0
30
0C
06
18
60
80
ENDCHAR

STARTCHAR char63
ENCODING 63
SWIDTH 55 0
DWIDTH 9 0
BBX 8 10 0 0
BITMAP
3E
7F
73
07
1E
1C
00
00
1C
1C
ENDCHAR

STARTCHAR char64
ENCODING 64
SWIDTH 36 0
DWIDTH 16 0
BBX 11 11 2 0
BITMAP
0F00
3180
6040
4FE0
D160
F160
F340
F240
7F80
30C0
1F00
ENDCHAR

STARTCHAR char65
ENCODING 65
SWIDTH 5 0
DWIDTH 11 0
BBX 10 10 0 0
BITMAP
1E00
1E00
3F00
3F00
3B00
7380
7F80
FF80
E1C0
61C0
ENDCHAR

STARTCHAR char66
ENCODING 66
SWIDTH 5 0
DWIDTH 11 0
BBX 9 10 1 0
BITMAP
FF00
FF80
E380
E780
FF00
FF00
E380
E780
FF80
FF00
ENDCHAR

STARTCHAR char67
ENCODING 67
SWIDTH 5 0
DWIDTH 11 0
BBX 10 10 0 0
BITMAP
1F00
3F80
71C0
E1C0
E000
E000
F1C0
7BC0
7F80
1F00
ENDCHAR

STARTCHAR char68
ENCODING 68
SWIDTH 5 0
DWIDTH 11 0
BBX 9 10 1 0
BITMAP
FE00
FF00
E700
E380
E380
E380
E380
E700
FF00
FE00
ENDCHAR

STARTCHAR char69
ENCODING 69
SWIDTH 5 0
DWIDTH 11 0
BBX 9 10 1 0
BITMAP
FF00
FF00
E000
E000
FF00
FF00
E000
E000
FF80
FF80
ENDCHAR

STARTCHAR char70
ENCODING 70
SWIDTH 61 0
DWIDTH 10 0
BBX 8 10 1 0
BITMAP
FF
FF
E0
E0
FE
FE
E0
E0
E0
E0
ENDCHAR

STARTCHAR char71
ENCODING 71
SWIDTH 11 0
DWIDTH 12 0
BBX 10 10 0 0
BITMAP
1E00
7F80
71C0
F000
E3C0
E3C0
F1C0
71C0
7FC0
1EC0
ENDCHAR

STARTCHAR char72
ENCODING 72
SWIDTH 5 0
DWIDTH 11 0
BBX 9 10 1 0
BITMAP
E380
E380
E380
E380
FF80
FF80
E380
E380
E380
E380
ENDCHAR

STARTCHAR char73
ENCODING 73
SWIDTH 30 0
DWIDTH 5 0
BBX 3 10 1 0
BITMAP
E0
E0
E0
E0
E0
E0
E0
E0
E0
E0
ENDCHAR

STARTCHAR char74
ENCODING 74
SWIDTH 55 0
DWIDTH 9 0
BBX 7 10 0 0
BITMAP
0E
0E
0E
0E
0E
0E
EE
EE
7C
38
ENDCHAR

STARTCHAR char75
ENCODING 75
SWIDTH 11 0
DWIDTH 12 0
BBX 10 10 1 0
BITMAP
E780
EF80
EE00
FC00
FC00
FE00
EF00
E700
E780
E3C0
ENDCHAR

STARTCHAR char76
ENCODING 76
SWIDTH 55 0
DWIDTH 9 0
BBX 8 10 1 0
BITMAP
E0
E0
E0
E0
E0
E0
E0
E0
FF
FF
ENDCHAR

STARTCHAR char77
ENCODING 77
SWIDTH 17 0
DWIDTH 13 0
BBX 11 10 1 0
BITMAP
F3E0
F3E0
F3E0
FBE0
FFE0
FFE0
FEE0
EEE0
EEE0
EC60
ENDCHAR

STARTCHAR char78
ENCODING 78
SWIDTH 5 0
DWIDTH 11 0
BBX 9 10 1 0
BITMAP
E380
F380
F380
FB80
FF80
EF80
EF80
E780
E780
E380
ENDCHAR

STARTCHAR char79
ENCODING 79
SWIDTH 11 0
DWIDTH 12 0
BBX 11 10 0 0
BITMAP
1F00
7FC0
71C0
F1E0
E0E0
E0E0
F1E0
71C0
7FC0
1F00
ENDCHAR

STARTCHAR char80
ENCODING 80
SWIDTH 61 0
DWIDTH 10 0
BBX 9 10 1 0
BITMAP
FE00
FF00
E380
E380
E780
FF00
FE00
E000
E000
E000
ENDCHAR

STARTCHAR char81
ENCODING 81
SWIDTH 11 0
DWIDTH 12 0
BBX 11 11 0 -1
BITMAP
1F00
7FC0
71C0
F0E0
E0E0
E2E0
F7E0
73C0
7FC0
1FE0
0040
ENDCHAR

STARTCHAR char82
ENCODING 82
SWIDTH 5 0
DWIDTH 11 0
BBX 9 10 1 0
BITMAP
FF00
FF80
E380
E380
FF00
FF00
E780
E380
E380
E380
ENDCHAR

STARTCHAR char83
ENCODING 83
SWIDTH 61 0
DWIDTH 10 0
BBX 9 10 0 0
BITMAP
1E00
7F00
7380
7C00
3F00
1F80
0380
F380
7F00
1E00
ENDCHAR

STARTCHAR char84
ENCODING 84
SWIDTH 55 0
DWIDTH 9 0
BBX 9 10 0 0
BITMAP
FF80
FF80
1C00
1C00
1C00
1C00
1C00
1C00
1C00
1C00
ENDCHAR

STARTCHAR char85
ENCODING 85
SWIDTH 5 0
DWIDTH 11 0
BBX 9 10 1 0
BITMAP
E380
E380
E380
E380
E380
E380
E380
E780
7F00
3E00
ENDCHAR

STARTCHAR char86
ENCODING 86
SWIDTH 61 0
DWIDTH 10 0
BBX 9 10 0 0
BITMAP
E300
E380
7380
7700
7700
7700
3E00
3E00
3E00
1C00
ENDCHAR

STARTCHAR char87
ENCODING 87
SWIDTH 29 0
DWIDTH 15 0
BBX 14 10 0 0
BITMAP
E738
E738
E7B8
7FB8
7DB8
7DF0
7DF0
3DF0
3DE0
3CE0
ENDCHAR

STARTCHAR char88
ENCODING 88
SWIDTH 5 0
DWIDTH 11 0
BBX 11 10 0 0
BITMAP
F380
7BC0
3F80
3F00
1E00
3F00
3F00
7F80
F3C0
71C0
ENDCHAR

STARTCHAR char89
ENCODING 89
SWIDTH 5 0
DWIDTH 11 0
BBX 10 10 0 0
BITMAP
E380
73C0
7780
3F00
3E00
1E00
1C00
1C00
1C00
1C00
ENDCHAR

STARTCHAR char90
ENCODING 90
SWIDTH 61 0
DWIDTH 10 0
BBX 9 10 0 0
BITMAP
FF80
FF80
0780
0F00
1E00
3C00
7800
7800
FF80
FF80
ENDCHAR

STARTCHAR char91
ENCODING 91
SWIDTH 43 0
DWIDTH 7 0
BBX 5 13 1 -3
BITMAP
F8
F8
E0
E0
E0
E0
E0
E0
E0
E0
E0
F8
F8
ENDCHAR

STARTCHAR char92
ENCODING 92
SWIDTH 24 0
DWIDTH 4 0
BBX 4 11 0 0
BITMAP
80
80
80
40
40
40
20
20
20
10
10
ENDCHAR

STARTCHAR char93
ENCODING 93
SWIDTH 43 0
DWIDTH 7 0
BBX 5 13 0 -3
BITMAP
F8
F8
38
38
38
38
38
38
38
38
38
F8
F8
ENDCHAR

STARTCHAR char94
ENCODING 94
SWIDTH 0 0
DWIDTH 0 0
BBX 6 2 -3 11
BITMAP
78
FC
ENDCHAR

STARTCHAR char95
ENCODING 95
SWIDTH 55 0
DWIDTH 9 0
BBX 8 1 0 -2
BITMAP
FF
ENDCHAR

STARTCHAR char96
ENCODING 96
SWIDTH 0 0
DWIDTH 0 0
BBX 4 2 -3 8
BITMAP
70
30
ENDCHAR

STARTCHAR char97
ENCODING 97
SWIDTH 55 0
DWIDTH 9 0
BBX 8 7 0 0
BITMAP
7E
67
0F
7F
E7
FF
7F
ENDCHAR

STARTCHAR char98
ENCODING 98
SWIDTH 61 0
DWIDTH 10 0
BBX 8 10 1 0
BITMAP
E0
E0
E0
FC
FE
E7
E7
E7
FE
FC
ENDCHAR

STARTCHAR char99
ENCODING 99
SWIDTH 55 0
DWIDTH 9 0
BBX 8 7 0 0
BITMAP
3C
7F
E0
E0
E7
7F
3C
ENDCHAR

STARTCHAR char100
ENCODING 100
SWIDTH 61 0
DWIDTH 10 0
BBX 8 10 0 0
BITMAP
03
03
03
3B
7F
E7
E7
E7
7F
3F
ENDCHAR

STARTCHAR char101
ENCODING 101
SWIDTH 55 0
DWIDTH 9 0
BBX 9 7 0 0
BITMAP
3C00
7F00
FF00
FF80
6000
7F00
3E00
ENDCHAR

STARTCHAR char102
ENCODING 102
SWIDTH 36 0
DWIDTH 6 0
BBX 5 10 0 0
BITMAP
38
78
70
F8
F8
70
70
70
70
70
ENDCHAR

STARTCHAR char103
ENCODING 103
SWIDTH 61 0
DWIDTH 10 0
BBX 8 9 0 -2
BITMAP
3F
7F
E7
E7
7F
3F
07
76
3C
ENDCHAR

STARTCHAR char104
ENCODING 104
SWIDTH 61 0
DWIDTH 10 0
BBX 7 10 1 0
BITMAP
E0
E0
E0
FC
FE
EE
EE
EE
EE
EE
ENDCHAR

STARTCHAR char105
ENCODING 105
SWIDTH 30 0
DWIDTH 5 0
BBX 3 10 1 0
BITMAP
E0
E0
00
E0
E0
E0
E0
E0
E0
E0
ENDCHAR

STARTCHAR char106
ENCODING 106
SWIDTH 30 0
DWIDTH 5 0
BBX 5 12 -1 -2
BITMAP
38
38
00
38
38
38
38
38
38
38
F8
F0
ENDCHAR

STARTCHAR char107
ENCODING 107
SWIDTH 55 0
DWIDTH 9 0
BBX 8 10 1 0
BITMAP
E0
E0
E0
EE
FC
F8
FC
FC
EE
EF
ENDCHAR

STARTCHAR char108
ENCODING 108
SWIDTH 30 0
DWIDTH 5 0
BBX 3 10 1 0
BITMAP
E0
E0
E0
E0
E0
E0
E0
E0
E0
E0
ENDCHAR

STARTCHAR char109
ENCODING 109
SWIDTH 29 0
DWIDTH 15 0
BBX 13 7 0 0
BITMAP
EEF0
FFF8
E738
E738
E738
E738
E738
ENDCHAR

STARTCHAR char110
ENCODING 110
SWIDTH 61 0
DWIDTH 10 0
BBX 7 7 1 0
BITMAP
FC
FE
EE
EE
EE
EE
EE
ENDCHAR

STARTCHAR char111
ENCODING 111
SWIDTH 55 0
DWIDTH 9 0
BBX 9 7 0 0
BITMAP
3E00
7F00
E380
E380
E780
7F00
3E00
ENDCHAR

STARTCHAR char112
ENCODING 112
SWIDTH 61 0
DWIDTH 10 0
BBX 8 9 1 -2
BITMAP
FC
FE
E7
E7
E7
FE
FC
E0
E0
ENDCHAR

STARTCHAR char113
ENCODING 113
SWIDTH 61 0
DWIDTH 10 0
BBX 9 9 0 -2
BITMAP
3B80
7F80
E380
E380
E380
7F80
3B80
0380
0380
ENDCHAR

STARTCHAR char114
ENCODING 114
SWIDTH 43 0
DWIDTH 7 0
BBX 6 7 1 0
BITMAP
FC
FC
E0
E0
E0
E0
E0
ENDCHAR

STARTCHAR char115
ENCODING 115
SWIDTH 49 0
DWIDTH 8 0
BBX 8 7 0 0
BITMAP
7E
E7
FC
7F
E7
FF
7C
ENDCHAR

STARTCHAR char116
ENCODING 116
SWIDTH 36 0
DWIDTH 6 0
BBX 5 10 0 0
BITMAP
70
70
70
F8
F8
70
70
70
78
38
ENDCHAR

STARTCHAR char117
ENCODING 117
SWIDTH 61 0
DWIDTH 10 0
BBX 8 7 1 0
BITMAP
E7
E7
E7
E7
EF
FF
77
ENDCHAR

STARTCHAR char118
ENCODING 118
SWIDTH 49 0
DWIDTH 8 0
BBX 8 7 0 0
BITMAP
E6
E7
7E
7E
7C
3C
3C
ENDCHAR

STARTCHAR char119
ENCODING 119
SWIDTH 17 0
DWIDTH 13 0
BBX 12 7 0 0
BITMAP
E770
EF70
6F70
7FE0
7DE0
39E0
39C0
ENDCHAR

STARTCHAR char120
ENCODING 120
SWIDTH 55 0
DWIDTH 9 0
BBX 8 7 0 0
BITMAP
7E
7E
3C
3C
7E
FE
67
ENDCHAR

STARTCHAR char121
ENCODING 121
SWIDTH 55 0
DWIDTH 9 0
BBX 8 9 0 -2
BITMAP
E6
E7
76
7E
3C
3C
3C
F8
70
ENDCHAR

STARTCHAR char122
ENCODING 122
SWIDTH 49 0
DWIDTH 8 0
BBX 7 7 0 0
BITMAP
FE
FE
1E
3C
70
FE
FE
ENDCHAR

STARTCHAR char123
ENCODING 123
SWIDTH 30 0
DWIDTH 5 0
BBX 3 13 1 -3
BITMAP
60
40
40
40
40
80
80
C0
C0
C0
C0
C0
60
ENDCHAR

STARTCHAR char124
ENCODING 124
SWIDTH 24 0
DWIDTH 4 0
BBX 2 11 1 0
BITMAP
C0
C0
C0
C0
C0
C0
C0
C0
C0
C0
C0
ENDCHAR

STARTCHAR char125
ENCODING 125
SWIDTH 30 0
DWIDTH 5 0
BBX 3 13 1 -3
BITMAP
C0
C0
C0
C0
C0
60
20
40
40
40
C0
C0
80
ENDCHAR

STARTCHAR char126
ENCODING 126
SWIDTH 0 0
DWIDTH 0 0
BBX 6 2 -3 11
BITMAP
7C
F8
ENDCHAR

STARTCHAR char128
ENCODING 128
SWIDTH 11 0
DWIDTH 12 0
BBX 12 10 -1 0
BITMAP
0780
0FC0
1CE0
38F0
FF00
FF00
38F0
1CE0
1FC0
0780
ENDCHAR

STARTCHAR char130
ENCODING 130
SWIDTH 24 0
DWIDTH 4 0
BBX 3 6 1 -3
BITMAP
60
E0
E0
60
C0
80
ENDCHAR

STARTCHAR char131
ENCODING 131
SWIDTH 0 0
DWIDTH 0 0
BBX 6 2 -3 11
BITMAP
78
FC
ENDCHAR

STARTCHAR char132
ENCODING 132
SWIDTH 49 0
DWIDTH 8 0
BBX 7 5 0 -3
BITMAP
EE
EE
66
CC
88
ENDCHAR

STARTCHAR char133
ENCODING 133
SWIDTH 36 0
DWIDTH 16 0
BBX 12 2 1 0
BITMAP
C630
C630
ENDCHAR

STARTCHAR char134
ENCODING 134
SWIDTH 49 0
DWIDTH 8 0
BBX 8 12 0 -2
BITMAP
38
38
38
FF
FF
38
38
38
38
38
38
38
ENDCHAR

STARTCHAR char136
ENCODING 136
SWIDTH 0 0
DWIDTH 0 0
BBX 6 2 -3 8
BITMAP
78
78
ENDCHAR

STARTCHAR char138
ENCODING 138
SWIDTH 29 0
DWIDTH 15 0
BBX 0 0 0 0
BITMAP
ENDCHAR

STARTCHAR char139
ENCODING 139
SWIDTH 30 0
DWIDTH 5 0
BBX 3 4 1 2
BITMAP
60
C0
C0
60
ENDCHAR

STARTCHAR char140
ENCODING 140
SWIDTH 42 0
DWIDTH 17 0
BBX 15 10 0 0
BITMAP
1FFE
3FFE
71C0
E1C0
E1FE
E1FE
F1C0
73FE
7FFE
1FFE
ENDCHAR

STARTCHAR char141
ENCODING 141
SWIDTH 29 0
DWIDTH 15 0
BBX 0 0 0 0
BITMAP
ENDCHAR

STARTCHAR char145
ENCODING 145
SWIDTH 30 0
DWIDTH 5 0
BBX 3 5 1 5
BITMAP
60
C0
C0
E0
E0
ENDCHAR

STARTCHAR char146
ENCODING 146
SWIDTH 30 0
DWIDTH 5 0
BBX 3 5 1 5
BITMAP
E0
E0
60
60
C0
ENDCHAR

STARTCHAR char147
ENCODING 147
SWIDTH 49 0
DWIDTH 8 0
BBX 7 5 0 5
BITMAP
66
CC
CC
EE
EE
ENDCHAR

STARTCHAR char148
ENCODING 148
SWIDTH 49 0
DWIDTH 8 0
BBX 7 5 0 5
BITMAP
EE
EE
66
EC
C8
ENDCHAR

STARTCHAR char149
ENCODING 149
SWIDTH 30 0
DWIDTH 5 0
BBX 4 4 0 3
BITMAP
60
F0
F0
60
ENDCHAR

STARTCHAR char150
ENCODING 150
SWIDTH 61 0
DWIDTH 10 0
BBX 9 2 0 3
BITMAP
FF80
FF80
ENDCHAR

STARTCHAR char151
ENCODING 151
SWIDTH 61 0
DWIDTH 10 0
BBX 10 2 0 3
BITMAP
FFC0
FFC0
ENDCHAR

STARTCHAR char152
ENCODING 152
SWIDTH 0 0
DWIDTH 0 0
BBX 6 2 -3 8
BITMAP
7C
F8
ENDCHAR

STARTCHAR char153
ENCODING 153
SWIDTH 17 0
DWIDTH 13 0
BBX 12 6 0 4
BITMAP
FE30
BE30
2550
2550
25B0
6EF0
ENDCHAR

STARTCHAR char155
ENCODING 155
SWIDTH 30 0
DWIDTH 5 0
BBX 3 4 1 2
BITMAP
C0
60
60
80
ENDCHAR

STARTCHAR char156
ENCODING 156
SWIDTH 29 0
DWIDTH 15 0
BBX 13 7 0 0
BITMAP
3DE0
7FF0
E7F8
E7F8
E700
7FF8
3DE0
ENDCHAR

STARTCHAR char157
ENCODING 157
SWIDTH 29 0
DWIDTH 15 0
BBX 0 0 0 0
BITMAP
ENDCHAR

STARTCHAR char159
ENCODING 159
SWIDTH 5 0
DWIDTH 11 0
BBX 10 13 0 0
BITMAP
7700
7700
0000
F3C0
7380
7F80
3F00
3F00
1E00
1E00
1E00
1E00
1E00
ENDCHAR

STARTCHAR char160
ENCODING 160
SWIDTH 30 0
DWIDTH 5 0
BBX 0 0 0 0
BITMAP
ENDCHAR

STARTCHAR char161
ENCODING 161
SWIDTH 30 0
DWIDTH 5 0
BBX 3 10 1 0
BITMAP
E0
E0
00
00
40
E0
E0
E0
E0
E0
ENDCHAR

STARTCHAR char162
ENCODING 162
SWIDTH 55 0
DWIDTH 9 0
BBX 8 11 0 -2
BITMAP
18
18
3E
7F
E8
F0
F7
7F
7E
18
18
ENDCHAR

STARTCHAR char163
ENCODING 163
SWIDTH 55 0
DWIDTH 9 0
BBX 9 10 0 0
BITMAP
1E00
7F00
7380
7000
FC00
FC00
3800
3100
7F80
6F00
ENDCHAR

STARTCHAR char164
ENCODING 164
SWIDTH 0 0
DWIDTH 0 0
BBX 4 2 -1 11
BITMAP
E0
C0
ENDCHAR

STARTCHAR char165
ENCODING 165
SWIDTH 0 0
DWIDTH 0 0
BBX 6 2 -3 11
BITMAP
FC
78
ENDCHAR

STARTCHAR char166
ENCODING 166
SWIDTH 29 0
DWIDTH 15 0
BBX 0 0 0 0
BITMAP
ENDCHAR

STARTCHAR char167
ENCODING 167
SWIDTH 61 0
DWIDTH 10 0
BBX 9 13 0 -3
BITMAP
3C00
7E00
7700
7C00
7F00
E780
F380
7F80
1E00
0700
7700
3F00
1C00
ENDCHAR

STARTCHAR char168
ENCODING 168
SWIDTH 0 0
DWIDTH 0 0
BBX 6 2 -3 8
BITMAP
FC
FC
ENDCHAR

STARTCHAR char169
ENCODING 169
SWIDTH 11 0
DWIDTH 12 0
BBX 11 10 0 0
BITMAP
0E00
3100
4080
5E40
F160
F060
F060
5E40
6080
1F00
ENDCHAR

STARTCHAR char170
ENCODING 170
SWIDTH 0 0
DWIDTH 0 0
BBX 6 2 -3 11
BITMAP
FC
FC
ENDCHAR

STARTCHAR char171
ENCODING 171
SWIDTH 36 0
DWIDTH 6 0
BBX 6 7 0 0
BITMAP
24
6C
FC
D8
FC
6C
24
ENDCHAR

STARTCHAR char172
ENCODING 172
SWIDTH 61 0
DWIDTH 10 0
BBX 10 4 0 0
BITMAP
FFC0
00C0
00C0
00C0
ENDCHAR

STARTCHAR char174
ENCODING 174
SWIDTH 11 0
DWIDTH 12 0
BBX 11 10 0 0
BITMAP
0E00
3100
4080
5F40
DB60
DC60
DE60
5B40
6080
1F00
ENDCHAR

STARTCHAR char176
ENCODING 176
SWIDTH 30 0
DWIDTH 5 0
BBX 5 5 -1 5
BITMAP
60
90
D8
90
60
ENDCHAR

STARTCHAR char177
ENCODING 177
SWIDTH 49 0
DWIDTH 8 0
BBX 7 9 0 0
BITMAP
18
18
18
FE
18
18
18
00
FE
ENDCHAR

STARTCHAR char179
ENCODING 179
SWIDTH 29 0
DWIDTH 15 0
BBX 0 0 0 0
BITMAP
ENDCHAR

STARTCHAR char180
ENCODING 180
SWIDTH 0 0
DWIDTH 0 0
BBX 4 2 -1 8
BITMAP
E0
C0
ENDCHAR

STARTCHAR char182
ENCODING 182
SWIDTH 61 0
DWIDTH 10 0
BBX 7 12 1 -2
BITMAP
7E
E6
E6
E6
66
26
26
26
26
26
26
26
ENDCHAR

STARTCHAR char183
ENCODING 183
SWIDTH 18 0
DWIDTH 3 0
BBX 3 2 0 3
BITMAP
E0
E0
ENDCHAR

STARTCHAR char184
ENCODING 184
SWIDTH 0 0
DWIDTH 0 0
BBX 3 4 -1 -3
BITMAP
E0
E0
60
E0
ENDCHAR

STARTCHAR char186
ENCODING 186
SWIDTH 0 0
DWIDTH 0 0
BBX 6 2 -3 11
BITMAP
7C
F8
ENDCHAR

STARTCHAR char187
ENCODING 187
SWIDTH 36 0
DWIDTH 6 0
BBX 6 7 0 0
BITMAP
88
DC
FC
6C
FC
D8
90
ENDCHAR

STARTCHAR char189
ENCODING 189
SWIDTH 29 0
DWIDTH 15 0
BBX 0 0 0 0
BITMAP
ENDCHAR

STARTCHAR char191
ENCODING 191
SWIDTH 55 0
DWIDTH 9 0
BBX 8 10 0 0
BITMAP
1C
1C
00
00
3C
78
F0
F7
7E
3C
ENDCHAR

STARTCHAR char192
ENCODING 192
SWIDTH 5 0
DWIDTH 11 0
BBX 10 13 0 0
BITMAP
3800
1C00
0000
1E00
1E00
3F00
3F00
3B00
7380
7F80
FF80
E1C0
61C0
ENDCHAR

STARTCHAR char193
ENCODING 193
SWIDTH 5 0
DWIDTH 11 0
BBX 10 13 0 0
BITMAP
0E00
0C00
0000
1E00
1E00
3F00
3F00
3B00
7380
7F80
FF80
E1C0
61C0
ENDCHAR

STARTCHAR char194
ENCODING 194
SWIDTH 5 0
DWIDTH 11 0
BBX 10 13 0 0
BITMAP
1C00
3600
0000
1E00
1E00
3F00
3F00
3B00
7380
7F80
FF80
E1C0
61C0
ENDCHAR

STARTCHAR char195
ENCODING 195
SWIDTH 5 0
DWIDTH 11 0
BBX 10 13 0 0
BITMAP
3E00
3E00
0000
1E00
1E00
3F00
3F00
3B00
7380
7F80
FF80
E1C0
61C0
ENDCHAR

STARTCHAR char196
ENCODING 196
SWIDTH 5 0
DWIDTH 11 0
BBX 10 13 0 0
BITMAP
3F00
3F00
0000
0C00
1E00
1E00
3F00
3F00
7F80
7F80
FF80
F3C0
63C0
ENDCHAR

STARTCHAR char197
ENCODING 197
SWIDTH 5 0
DWIDTH 11 0
BBX 10 14 0 0
BITMAP
1E00
1E00
1E00
0000
1E00
1E00
3F00
3F00
3F00
7F80
7F80
FF80
E1C0
61C0
ENDCHAR

STARTCHAR char198
ENCODING 198
SWIDTH 36 0
DWIDTH 16 0
BBX 14 10 0 0
BITMAP
1FFC
3FFC
3B80
3B80
73F8
73F8
7F80
FFFC
E3FC
63FC
ENDCHAR

STARTCHAR char199
ENCODING 199
SWIDTH 5 0
DWIDTH 11 0
BBX 10 13 0 -3
BITMAP
1F00
3F80
73C0
E1C0
E000
E000
E1C0
7FC0
7F80
3F00
1C00
0C00
0C00
ENDCHAR

STARTCHAR char200
ENCODING 200
SWIDTH 5 0
DWIDTH 11 0
BBX 9 13 1 0
BITMAP
3000
1800
0000
FF00
FF00
E000
E000
FF00
FF00
E000
E000
FF80
FF80
ENDCHAR

STARTCHAR char201
ENCODING 201
SWIDTH 5 0
DWIDTH 11 0
BBX 9 13 1 0
BITMAP
1C00
1800
0000
FF00
FF00
E000
E000
FF00
FF00
E000
E000
FF80
FF80
ENDCHAR

STARTCHAR char202
ENCODING 202
SWIDTH 5 0
DWIDTH 11 0
BBX 9 13 1 0
BITMAP
3800
6C00
0000
FF00
FF00
E000
E000
FF00
FF00
E000
E000
FF80
FF80
ENDCHAR

STARTCHAR char203
ENCODING 203
SWIDTH 5 0
DWIDTH 11 0
BBX 9 13 1 0
BITMAP
EE00
EE00
0000
FF00
FF00
E000
E000
FF00
FF00
E000
E000
FF80
FF80
ENDCHAR

STARTCHAR char204
ENCODING 204
SWIDTH 30 0
DWIDTH 5 0
BBX 5 13 -1 0
BITMAP
70
30
00
38
38
38
38
38
38
38
38
38
38
ENDCHAR

STARTCHAR char205
ENCODING 205
SWIDTH 30 0
DWIDTH 5 0
BBX 4 13 1 0
BITMAP
E0
C0
00
E0
E0
E0
E0
E0
E0
E0
E0
E0
E0
ENDCHAR

STARTCHAR char206
ENCODING 206
SWIDTH 30 0
DWIDTH 5 0
BBX 6 13 -1 0
BITMAP
78
FC
00
38
38
38
38
38
38
38
38
38
38
ENDCHAR

STARTCHAR char207
ENCODING 207
SWIDTH 30 0
DWIDTH 5 0
BBX 6 13 -1 0
BITMAP
FC
FC
00
38
38
38
38
38
38
38
38
38
38
ENDCHAR

STARTCHAR char209
ENCODING 209
SWIDTH 5 0
DWIDTH 11 0
BBX 9 13 1 0
BITMAP
3E00
3C00
0000
E380
F380
FB80
FB80
FF80
EF80
EF80
E780
E780
E380
ENDCHAR

STARTCHAR char210
ENCODING 210
SWIDTH 11 0
DWIDTH 12 0
BBX 11 13 0 0
BITMAP
1C00
0C00
0000
1F00
7FC0
71C0
F1E0
E0E0
E0E0
F1E0
71C0
7FC0
1F00
ENDCHAR

STARTCHAR char211
ENCODING 211
SWIDTH 11 0
DWIDTH 12 0
BBX 11 13 0 0
BITMAP
0F00
0E00
0000
1F00
7FC0
71C0
F1E0
E0E0
E0E0
F1E0
71C0
7FC0
1F00
ENDCHAR

STARTCHAR char212
ENCODING 212
SWIDTH 11 0
DWIDTH 12 0
BBX 11 13 0 0
BITMAP
1E00
3F00
0000
1F00
7FC0
71C0
F1E0
E0E0
E0E0
F1E0
71C0
7FC0
1F00
ENDCHAR

STARTCHAR char213
ENCODING 213
SWIDTH 11 0
DWIDTH 12 0
BBX 11 13 0 0
BITMAP
1F00
3E00
0000
1F00
7FC0
71C0
F1E0
E0E0
E0E0
F1E0
71C0
7FC0
1F00
ENDCHAR

STARTCHAR char214
ENCODING 214
SWIDTH 11 0
DWIDTH 12 0
BBX 11 13 0 0
BITMAP
3B80
3B80
0000
1F00
3F80
71C0
F1E0
E0E0
E0E0
F1E0
71C0
3F80
1F00
ENDCHAR

STARTCHAR char216
ENCODING 216
SWIDTH 11 0
DWIDTH 12 0
BBX 11 12 0 -1
BITMAP
0020
1F60
7FC0
71C0
F3E0
E6E0
ECE0
F9E0
79C0
7F80
5F00
4000
ENDCHAR

STARTCHAR char217
ENCODING 217
SWIDTH 5 0
DWIDTH 11 0
BBX 9 13 1 0
BITMAP
3800
1800
0000
E380
E380
E380
E380
E380
E380
E380
E780
7F00
3E00
ENDCHAR

STARTCHAR char218
ENCODING 218
SWIDTH 5 0
DWIDTH 11 0
BBX 9 13 1 0
BITMAP
1C00
1800
0000
E380
E380
E380
E380
E380
E380
E380
E780
7F00
3E00
ENDCHAR

STARTCHAR char219
ENCODING 219
SWIDTH 5 0
DWIDTH 11 0
BBX 9 13 1 0
BITMAP
3C00
3E00
0000
E380
E380
E380
E380
E380
E380
E380
E780
7F00
3E00
ENDCHAR

STARTCHAR char220
ENCODING 220
SWIDTH 5 0
DWIDTH 11 0
BBX 9 13 1 0
BITMAP
7700
7700
0000
E380
E380
E380
E380
E380
E380
E380
E780
7F00
3E00
ENDCHAR

STARTCHAR char222
ENCODING 222
SWIDTH 29 0
DWIDTH 15 0
BBX 0 0 0 0
BITMAP
ENDCHAR

STARTCHAR char223
ENCODING 223
SWIDTH 61 0
DWIDTH 10 0
BBX 8 10 1 0
BITMAP
3C
7E
EE
EE
FE
EF
E7
E7
FE
FC
ENDCHAR

STARTCHAR char224
ENCODING 224
SWIDTH 55 0
DWIDTH 9 0
BBX 8 10 0 0
BITMAP
38
18
00
7E
67
0F
7F
E7
FF
7F
ENDCHAR

STARTCHAR char225
ENCODING 225
SWIDTH 55 0
DWIDTH 9 0
BBX 8 10 0 0
BITMAP
1C
18
00
7E
67
0F
7F
E7
FF
7F
ENDCHAR

STARTCHAR char226
ENCODING 226
SWIDTH 55 0
DWIDTH 9 0
BBX 8 10 0 0
BITMAP
3C
3C
00
7E
67
0F
7F
E7
FF
7F
ENDCHAR

STARTCHAR char227
ENCODING 227
SWIDTH 55 0
DWIDTH 9 0
BBX 8 10 0 0
BITMAP
3C
7C
00
7E
67
0F
7F
E7
FF
7F
ENDCHAR

STARTCHAR char228
ENCODING 228
SWIDTH 55 0
DWIDTH 9 0
BBX 8 10 0 0
BITMAP
77
77
00
3E
67
0F
7F
E7
FF
7B
ENDCHAR

STARTCHAR char229
ENCODING 229
SWIDTH 55 0
DWIDTH 9 0
BBX 8 11 0 0
BITMAP
18
14
18
00
3E
67
CF
7F
E7
FF
7F
ENDCHAR

STARTCHAR char230
ENCODING 230
SWIDTH 23 0
DWIDTH 14 0
BBX 13 7 0 0
BITMAP
3DE0
FFF0
3FF8
FFF8
E700
FFF0
79E0
ENDCHAR

STARTCHAR char231
ENCODING 231
SWIDTH 55 0
DWIDTH 9 0
BBX 8 10 0 -3
BITMAP
3C
7F
E0
E0
E7
FF
7E
38
18
18
ENDCHAR

STARTCHAR char232
ENCODING 232
SWIDTH 55 0
DWIDTH 9 0
BBX 9 10 0 0
BITMAP
3800
1800
0000
3C00
7F00
FF00
FF80
6000
7F00
3E00
ENDCHAR

STARTCHAR char233
ENCODING 233
SWIDTH 55 0
DWIDTH 9 0
BBX 9 10 0 0
BITMAP
1C00
1800
0000
3C00
7F00
FF00
FF80
6000
7F00
3E00
ENDCHAR

STARTCHAR char234
ENCODING 234
SWIDTH 55 0
DWIDTH 9 0
BBX 9 10 0 0
BITMAP
3C00
3C00
0000
3C00
7F00
FF00
FF80
6000
7F00
3E00
ENDCHAR

STARTCHAR char235
ENCODING 235
SWIDTH 55 0
DWIDTH 9 0
BBX 9 10 0 0
BITMAP
7E00
7E00
0000
3C00
7F00
FF00
FF80
7000
7F00
3C00
ENDCHAR

STARTCHAR char236
ENCODING 236
SWIDTH 30 0
DWIDTH 5 0
BBX 5 10 -1 0
BITMAP
70
30
00
38
38
38
38
38
38
38
ENDCHAR

STARTCHAR char237
ENCODING 237
SWIDTH 30 0
DWIDTH 5 0
BBX 4 10 1 0
BITMAP
E0
E0
00
E0
E0
E0
E0
E0
E0
E0
ENDCHAR

STARTCHAR char238
ENCODING 238
SWIDTH 30 0
DWIDTH 5 0
BBX 6 10 -1 0
BITMAP
78
78
00
38
38
38
38
38
38
38
ENDCHAR

STARTCHAR char239
ENCODING 239
SWIDTH 30 0
DWIDTH 5 0
BBX 6 10 -1 0
BITMAP
FC
FC
00
30
30
30
30
30
30
30
ENDCHAR

STARTCHAR char241
ENCODING 241
SWIDTH 61 0
DWIDTH 10 0
BBX 7 10 1 0
BITMAP
78
78
00
FC
FE
EE
EE
EE
EE
EE
ENDCHAR

STARTCHAR char242
ENCODING 242
SWIDTH 55 0
DWIDTH 9 0
BBX 9 10 0 0
BITMAP
7800
3800
0000
3E00
7F00
E380
E380
E780
7F00
3E00
ENDCHAR

STARTCHAR char243
ENCODING 243
SWIDTH 55 0
DWIDTH 9 0
BBX 9 10 0 0
BITMAP
1E00
1C00
0000
3E00
7F00
E380
E380
E780
7F00
3E00
ENDCHAR

STARTCHAR char244
ENCODING 244
SWIDTH 55 0
DWIDTH 9 0
BBX 9 10 0 0
BITMAP
3C00
7E00
0000
3E00
7F00
E380
E380
E780
7F00
3E00
ENDCHAR

STARTCHAR char245
ENCODING 245
SWIDTH 55 0
DWIDTH 9 0
BBX 9 10 0 0
BITMAP
3E00
7E00
0000
3E00
7F00
E380
E380
E780
7F00
3E00
ENDCHAR

STARTCHAR char246
ENCODING 246
SWIDTH 55 0
DWIDTH 9 0
BBX 9 10 0 0
BITMAP
7700
7700
0000
3E00
7F00
E380
E380
E780
7F00
3E00
ENDCHAR

STARTCHAR char247
ENCODING 247
SWIDTH 49 0
DWIDTH 8 0
BBX 7 6 0 1
BITMAP
18
18
00
FE
18
18
ENDCHAR

STARTCHAR char248
ENCODING 248
SWIDTH 55 0
DWIDTH 9 0
BBX 9 9 0 -1
BITMAP
0100
3F00
7F00
EF80
FB80
F380
7F00
FE00
4000
ENDCHAR

STARTCHAR char249
ENCODING 249
SWIDTH 61 0
DWIDTH 10 0
BBX 8 10 1 0
BITMAP
70
30
00
E7
E7
E7
E7
EF
FF
77
ENDCHAR

STARTCHAR char250
ENCODING 250
SWIDTH 61 0
DWIDTH 10 0
BBX 8 10 1 0
BITMAP
1C
38
00
E7
E7
E7
E7
EF
FF
77
ENDCHAR

STARTCHAR char251
ENCODING 251
SWIDTH 61 0
DWIDTH 10 0
BBX 8 10 1 0
BITMAP
38
6C
00
E7
E7
E7
E7
EF
FF
77
ENDCHAR

STARTCHAR char252
ENCODING 252
SWIDTH 61 0
DWIDTH 10 0
BBX 7 10 1 0
BITMAP
6C
6C
00
EE
EE
EE
EE
EE
FE
7E
ENDCHAR

STARTCHAR char255
ENCODING 255
SWIDTH 55 0
DWIDTH 9 0
BBX 8 12 0 -2
BITMAP
EE
EE
00
E7
E7
FE
7E
7E
7C
3C
F8
F0
ENDCHAR
ENDFONT
